<?xml version="1.0" standalone="no"?>
<!DOCTYPE svg PUBLIC "-//W3C//DTD SVG 20010904//EN"
 "http://www.w3.org/TR/2001/REC-SVG-20010904/DTD/svg10.dtd">
<svg version="1.0" xmlns="http://www.w3.org/2000/svg"
 width="300.000000pt" height="300.000000pt" viewBox="0 0 300.000000 300.000000"
 preserveAspectRatio="xMidYMid meet">
<metadata>
Created by potrace 1.10, written by Peter Selinger 2001-2011
</metadata>
<g transform="translate(0.000000,300.000000) scale(0.100000,-0.100000)"
fill="#daa520" stroke="none">
<path d="M646 2597 c-88 -47 -152 -115 -172 -182 -21 -74 -17 -101 16 -97 115
13 187 93 224 250 17 73 15 74 -68 29z"/>
<path d="M2274 2619 c2 -8 10 -36 17 -64 36 -145 124 -235 229 -235 21 0 22 3
16 51 -13 94 -60 158 -164 218 -64 37 -104 49 -98 30z"/>
<path d="M316 2505 c-39 -83 -59 -168 -51 -218 8 -48 36 -107 59 -127 21 -17
47 5 75 66 36 76 23 183 -36 298 l-20 38 -27 -57z"/>
<path d="M2620 2489 c-57 -123 -52 -232 12 -305 35 -39 47 -35 77 25 27 54 33
106 21 168 -11 50 -64 183 -73 183 -2 0 -19 -32 -37 -71z"/>
<path d="M2330 2315 c0 -28 51 -140 84 -186 40 -55 104 -89 165 -89 l44 0 -7
43 c-17 103 -82 166 -235 227 -43 16 -51 17 -51 5z"/>
<path d="M586 2295 c-121 -51 -190 -127 -203 -227 l-6 -41 49 8 c98 14 154 61
205 170 37 79 45 115 28 115 -8 -1 -40 -12 -73 -25z"/>
<path d="M2788 2183 c-86 -118 -107 -210 -68 -301 12 -29 28 -52 35 -52 18 0
75 66 91 106 24 58 13 255 -16 287 -4 5 -23 -13 -42 -40z"/>
<path d="M165 2208 c-28 -87 -34 -217 -11 -272 17 -40 73 -106 91 -106 18 0
48 67 53 122 6 60 -17 126 -71 206 -42 63 -54 72 -62 50z"/>
<path d="M444 1978 c-80 -60 -121 -112 -140 -177 -14 -47 -14 -114 0 -128 2
-3 18 -2 34 2 39 8 108 68 132 115 22 43 43 152 38 200 l-3 32 -61 -44z"/>
<path d="M2493 1948 c8 -95 30 -156 73 -206 34 -40 117 -82 132 -68 16 16 5
131 -16 171 -28 55 -157 175 -188 175 -4 0 -4 -33 -1 -72z"/>
<path d="M53 1809 c13 -137 64 -226 153 -270 38 -18 48 -19 55 -8 16 25 9 112
-12 159 -23 51 -95 123 -159 159 l-43 24 6 -64z"/>
<path d="M2890 1839 c-111 -76 -153 -137 -156 -227 -4 -87 -1 -92 41 -79 78
24 141 106 164 215 13 61 15 122 4 122 -5 0 -28 -14 -53 -31z"/>
<path d="M2494 1705 c-5 -22 -9 -78 -8 -125 0 -68 5 -94 22 -128 20 -37 91
-102 112 -102 16 0 35 68 34 122 -1 71 -35 143 -103 218 l-49 55 -8 -40z"/>
<path d="M440 1678 c-86 -108 -111 -187 -86 -272 19 -65 31 -69 81 -24 62 54
80 100 80 203 0 93 -9 145 -24 145 -5 0 -28 -24 -51 -52z"/>
<path d="M2920 1524 c-129 -24 -199 -68 -236 -148 -36 -78 -34 -86 29 -86 70
1 123 27 177 87 41 45 107 150 98 157 -1 2 -32 -3 -68 -10z"/>
<path d="M41 1471 c64 -117 139 -176 238 -188 57 -7 66 2 52 53 -28 100 -129
171 -271 190 l-53 7 34 -62z"/>
<path d="M517 1389 c-58 -91 -70 -121 -75 -190 -3 -52 0 -75 16 -112 12 -26
25 -47 31 -47 18 0 91 93 101 129 5 20 10 58 10 85 0 50 -25 165 -40 180 -5 5
-24 -15 -43 -45z"/>
<path d="M2438 1434 c-4 -5 -13 -37 -22 -71 -36 -136 -9 -244 74 -303 l29 -21
21 40 c33 65 28 151 -14 236 -38 77 -80 133 -88 119z"/>
<path d="M70 1254 c0 -17 70 -104 111 -138 50 -43 108 -66 164 -66 72 0 80 8
60 56 -26 64 -92 121 -160 139 -59 15 -175 21 -175 9z"/>
<path d="M2810 1259 c-78 -13 -153 -52 -183 -97 -30 -43 -50 -92 -41 -101 3
-3 36 -6 72 -6 55 0 75 5 114 27 47 28 119 102 151 158 l18 30 -38 -1 c-21 -1
-63 -5 -93 -10z"/>
<path d="M650 1178 c-51 -129 -44 -233 20 -307 20 -23 21 -23 40 -6 58 53 76
166 41 266 -23 68 -53 129 -61 129 -4 0 -22 -37 -40 -82z"/>
<path d="M2270 1188 c-54 -121 -53 -209 1 -292 31 -46 32 -46 51 -29 56 50 77
167 48 259 -20 63 -52 134 -60 134 -4 0 -22 -32 -40 -72z"/>
<path d="M835 1080 c-16 -26 -10 -202 8 -244 24 -54 59 -97 96 -119 l31 -18
15 35 c23 53 19 133 -9 191 -32 67 -129 174 -141 155z"/>
<path d="M2099 1033 c-92 -101 -122 -208 -84 -299 l14 -35 41 27 c79 52 116
157 104 292 -3 39 -10 72 -14 72 -4 0 -32 -26 -61 -57z"/>
<path d="M253 1003 c-18 -2 -33 -8 -33 -13 0 -13 118 -109 164 -133 48 -25
166 -30 204 -9 20 12 21 15 8 40 -18 35 -62 75 -106 98 -35 18 -166 27 -237
17z"/>
<path d="M2526 995 c-42 -15 -100 -65 -122 -106 -13 -26 -12 -27 19 -40 88
-37 204 -1 305 95 l54 51 -28 6 c-53 12 -188 8 -228 -6z"/>
<path d="M1052 853 c44 -100 112 -189 169 -218 36 -19 125 -30 133 -17 13 21
-16 101 -51 142 -41 47 -104 82 -190 104 -77 20 -75 21 -61 -11z"/>
<path d="M1885 868 c-103 -34 -138 -53 -179 -99 -42 -47 -75 -127 -60 -150 3
-6 25 -7 52 -3 106 15 172 75 239 217 l22 47 -22 -1 c-12 0 -35 -5 -52 -11z"/>
<path d="M580 800 c-25 -5 -69 -17 -98 -27 l-52 -18 49 -32 c116 -77 225 -96
314 -56 26 12 47 26 47 31 0 16 -63 74 -95 87 -43 19 -113 25 -165 15z"/>
<path d="M2279 797 c-77 -29 -132 -84 -106 -106 55 -45 162 -53 247 -18 73 31
144 77 134 87 -40 35 -216 59 -275 37z"/>
<path d="M890 651 c-68 -22 -195 -100 -183 -112 16 -15 132 -39 188 -39 32 0
75 5 97 12 49 15 114 69 106 90 -15 38 -147 69 -208 49z"/>
<path d="M1954 641 c-23 -10 -45 -25 -49 -32 -12 -19 65 -86 116 -99 53 -15
154 -8 229 15 l55 17 -30 24 c-105 84 -237 115 -321 75z"/>
<path d="M1465 585 c-14 -13 -25 -29 -25 -35 0 -16 38 -50 56 -50 53 0 75 64
32 94 -30 21 -35 20 -63 -9z"/>
<path d="M1200 551 c-58 -18 -200 -111 -200 -131 0 -10 113 -30 169 -30 74 0
129 20 178 65 57 51 53 68 -18 89 -57 17 -89 19 -129 7z"/>
<path d="M1653 541 c-24 -11 -43 -24 -43 -30 0 -20 52 -70 93 -90 23 -11 67
-23 97 -26 60 -7 191 14 196 30 4 12 -62 63 -129 101 -66 36 -155 43 -214 15z"/>
</g>
</svg>
